ModelForces
version=1
nRows=4
nColumns=155
inDegrees=no

This file contains the forces exerted on a model during a simulation.

A force is a generalized force, meaning that it can be either a force (N) or a torque (Nm).

Units are S.I. units (second, meters, Newtons, ...)
Angles are in degrees.

endheader
time	glut_med1_r	glut_med2_r	glut_med3_r	glut_min1_r	glut_min2_r	glut_min3_r	semimem_r	semiten_r	bifemlh_r	bifemsh_r	sar_r	add_long_r	add_brev_r	add_mag1_r	add_mag2_r	add_mag3_r	tfl_r	pect_r	grac_r	glut_max1_r	glut_max2_r	glut_max3_r	iliacus_r	psoas_r	quad_fem_r	gem_r	peri_r	rect_fem_r	vas_med_r	vas_int_r	vas_lat_r	med_gas_r	lat_gas_r	soleus_r	tib_post_r	flex_dig_r	flex_hal_r	tib_ant_r	per_brev_r	per_long_r	per_tert_r	ext_dig_r	ext_hal_r	glut_med1_l	glut_med2_l	glut_med3_l	glut_min1_l	glut_min2_l	glut_min3_l	semimem_l	semiten_l	bifemlh_l	bifemsh_l	sar_l	add_long_l	add_brev_l	add_mag1_l	add_mag2_l	add_mag3_l	tfl_l	pect_l	grac_l	glut_max1_l	glut_max2_l	glut_max3_l	iliacus_l	psoas_l	quad_fem_l	gem_l	peri_l	rect_fem_l	vas_med_l	vas_int_l	vas_lat_l	med_gas_l	lat_gas_l	soleus_l	tib_post_l	flex_dig_l	flex_hal_l	tib_ant_l	per_brev_l	per_long_l	per_tert_l	ext_dig_l	ext_hal_l	ercspn_r	ercspn_l	intobl_r	intobl_l	extobl_r	extobl_l	femur_lat_meniscii_r.femur_lat_r.force.X	femur_lat_meniscii_r.femur_lat_r.force.Y	femur_lat_meniscii_r.femur_lat_r.force.Z	femur_lat_meniscii_r.femur_lat_r.torque.X	femur_lat_meniscii_r.femur_lat_r.torque.Y	femur_lat_meniscii_r.femur_lat_r.torque.Z	femur_lat_meniscii_r.meniscus_lat_r.force.X	femur_lat_meniscii_r.meniscus_lat_r.force.Y	femur_lat_meniscii_r.meniscus_lat_r.force.Z	femur_lat_meniscii_r.meniscus_lat_r.torque.X	femur_lat_meniscii_r.meniscus_lat_r.torque.Y	femur_lat_meniscii_r.meniscus_lat_r.torque.Z	femur_med_meniscii_r.femur_med_r.force.X	femur_med_meniscii_r.femur_med_r.force.Y	femur_med_meniscii_r.femur_med_r.force.Z	femur_med_meniscii_r.femur_med_r.torque.X	femur_med_meniscii_r.femur_med_r.torque.Y	femur_med_meniscii_r.femur_med_r.torque.Z	femur_med_meniscii_r.meniscus_med_r.force.X	femur_med_meniscii_r.meniscus_med_r.force.Y	femur_med_meniscii_r.meniscus_med_r.force.Z	femur_med_meniscii_r.meniscus_med_r.torque.X	femur_med_meniscii_r.meniscus_med_r.torque.Y	femur_med_meniscii_r.meniscus_med_r.torque.Z	femur_med_tibia_r.tibia_upper_r.force.X	femur_med_tibia_r.tibia_upper_r.force.Y	femur_med_tibia_r.tibia_upper_r.force.Z	femur_med_tibia_r.tibia_upper_r.torque.X	femur_med_tibia_r.tibia_upper_r.torque.Y	femur_med_tibia_r.tibia_upper_r.torque.Z	femur_med_tibia_r.femur_med_r.force.X	femur_med_tibia_r.femur_med_r.force.Y	femur_med_tibia_r.femur_med_r.force.Z	femur_med_tibia_r.femur_med_r.torque.X	femur_med_tibia_r.femur_med_r.torque.Y	femur_med_tibia_r.femur_med_r.torque.Z	femur_lat_tibia_r.tibia_upper_r.force.X	femur_lat_tibia_r.tibia_upper_r.force.Y	femur_lat_tibia_r.tibia_upper_r.force.Z	femur_lat_tibia_r.tibia_upper_r.torque.X	femur_lat_tibia_r.tibia_upper_r.torque.Y	femur_lat_tibia_r.tibia_upper_r.torque.Z	femur_lat_tibia_r.femur_lat_r.force.X	femur_lat_tibia_r.femur_lat_r.force.Y	femur_lat_tibia_r.femur_lat_r.force.Z	femur_lat_tibia_r.femur_lat_r.torque.X	femur_lat_tibia_r.femur_lat_r.torque.Y	femur_lat_tibia_r.femur_lat_r.torque.Z	aACL_R	pACL_R	aPCL_R	pPCL_R	aMCL_R	mMCL_R	pMCL_R	aLCL_R	mLCL_R	pLCL_R	aPCL_L	pPCL_L	aMCL_L	aLCL_L
      0.16635084	     11.34388625	      8.28230558	      8.90720671	      3.82525016	      4.44825734	      4.80853641	      0.00000000	    164.64609925	    149.13595173	    305.19633431	    129.14771505	      8.24227347	      5.93749958	      3.78825290	      3.61110942	      6.08332347	      5.01274024	      3.22865411	     98.67305244	      5.34760165	      8.13492677	      6.11254524	     27.43046119	     18.39609768	      5.25928960	      3.63674530	      6.22211804	     55.82339198	     31.06371711	     33.29483281	     45.10010791	      0.00000000	      0.00000000	      0.00000000	      0.00000000	      0.00000000	      0.00000000	     33.91856997	      2.21446538	      2.85238750	     41.52457538	     43.45859462	     11.14608886	     11.34388625	      8.28230558	      8.90720671	      3.82525016	      4.44825734	      4.80853641	      0.00000000	      6.13460374	     12.11262895	     10.46784667	      2.18267368	      8.24227347	      5.93749958	      3.78825290	      3.61110942	      6.08332347	      5.39358474	      3.22865411	      2.25292991	      5.34760165	      8.13492677	      6.11254524	     27.43046119	     18.39609768	      5.25928960	      3.63674530	      6.22211804	     16.86112138	      0.00000000	      0.00000000	      0.00000000	     21.12425371	      9.97389808	     50.42893873	     50.78430580	      5.40798991	      4.83760905	     13.12691671	      7.01846766	     18.06589838	      2.84437565	      8.75207877	      2.75084570	     36.00529858	     36.00529858	     13.37037025	     13.37037025	     30.74401859	     30.74401859	    123.93088999	    225.81378705	     29.03096744	    -17.11304668	      3.03257595	     48.38223628	   -123.93088999	   -225.81378705	    -29.03096744	      6.21103842	     -3.81536103	      4.24636628	     33.34156077	     26.61006498	     11.84812715	     -4.16275210	     -0.74161066	     13.35515795	    -33.34156077	    -26.61006498	    -11.84812715	     -0.38075813	      0.44690609	      0.09252270	   -742.82999820	   -670.97225030	    223.16200828	    -15.53902363	     16.92659535	     -0.72699998	    742.82999820	    670.97225030	   -223.16200828	    102.80116708	    -13.34533946	    301.96044787	      0.00000000	      0.00000000	      0.00000000	      0.00000000	      0.00000000	      0.00000000	      0.00000000	      0.00000000	      0.00000000	      0.00000000	      0.00000000	      0.00000000	      1.69376392	      0.00000000	    591.06059878	    378.18742596	      0.00000000	      0.00000000	      0.00000000	      0.00000000	      0.00000000	      0.00000000	      0.00000000	      0.00000000	      0.00000001	      0.00000000
      0.16661203	     11.33146302	      8.27330809	      8.89741430	      3.82126504	      4.44389761	      4.80296690	      0.00000000	    164.67978457	    149.14741923	    305.24283756	    129.13705362	      8.23321636	      5.93137150	      3.82057557	      3.60711491	      6.07608505	      5.00365839	      3.22526653	     98.66082241	      5.34176962	      8.12603478	      6.10575977	     27.41388574	     18.37719587	      5.25369118	      3.63401190	      6.21915507	     56.06198718	     31.04310704	     33.28871074	     45.09035511	      0.00000000	      0.00000000	      0.00000000	      0.00000000	      0.00000000	      0.00000000	     33.95869439	      2.20593985	      2.85097711	     14.08541724	     43.56379458	     11.17076086	     11.33146302	      8.27330809	      8.89741430	      3.82126504	      4.44389761	      4.80296690	      0.00000000	      6.12751527	     12.09877687	     10.45669111	      2.18041041	      8.23321636	      5.93137150	      3.82057557	      3.60711491	      6.07608505	      5.38912324	      3.22526653	      2.25055271	      5.34176962	      8.12603478	      6.10575977	     27.41388574	     18.37719587	      5.25369118	      3.63401190	      6.21915507	     16.84019107	      0.00000000	      0.00000000	      0.00000000	     21.11734620	      9.96974145	     50.37773436	     50.75762337	      5.40195260	      4.83204518	     13.11148141	      7.00973519	     18.04946763	      2.84146369	      8.74148865	      2.74774540	     35.96770427	     35.96770427	     13.35528433	     13.35528433	     30.73034539	     30.73034539	    125.66131878	    224.98220545	     28.71121889	    -16.95248113	      3.07891329	     49.09650247	   -125.66131878	   -224.98220545	    -28.71121889	      6.17222830	     -3.85914222	      4.19968184	     33.46775767	     26.40438832	     11.77673659	     -4.13836850	     -0.74303956	     13.40550202	    -33.46775767	    -26.40438832	    -11.77673659	     -0.37825180	      0.44901415	      0.08929880	   -745.63205760	   -669.58983873	    223.82052463	    -15.51325471	     16.99414792	     -0.73872187	    745.63205760	    669.58983873	   -223.82052463	    103.03848356	    -13.39412798	    303.08880059	      0.00000000	      0.00000000	      0.00000000	      0.00000000	      0.00000000	      0.00000000	      0.00000000	      0.00000000	      0.00000000	      0.00000000	      0.00000000	      0.00000000	      1.70291616	      0.00000000	    593.57437343	    379.31216275	      0.00000000	      0.00000000	      0.00000000	      0.00000000	      0.00000000	      0.00000000	      0.00000000	      0.00000000	      0.00000001	      0.00000000
      0.16687322	     11.31906772	      8.26434209	      8.88765626	      3.81729374	      4.43955312	      4.79741668	      0.00000000	    164.71045358	    149.16443687	    305.29803325	    129.12405770	      8.22419104	      5.92526462	      3.84960370	      3.60313442	      6.06887194	      4.99438347	      3.22189071	     98.64658274	      5.33595810	      8.11717408	      6.09899820	     27.39736916	     18.35836135	      5.24811227	      3.63128829	      6.21616694	     56.30081822	     31.03377413	     33.28157968	     45.07944543	      0.00000000	      0.00000000	      0.00000000	      0.00000000	      0.00000000	      0.00000000	     33.99888256	      2.19742855	      2.84952487	     24.82309492	     43.72834491	     11.20912502	     11.31906772	      8.26434209	      8.88765626	      3.81729374	      4.43955312	      4.79741668	      0.00000000	      6.12045175	     12.08495500	     10.44557447	      2.17815497	      8.22419104	      5.92526462	      3.84960370	      3.60313442	      6.06887194	      5.38467713	      3.22189071	      2.24818378	      5.33595810	      8.11717408	      6.09899820	     27.39736916	     18.35836135	      5.24811227	      3.63128829	      6.21616694	     16.81933019	      0.00000000	      0.00000000	      0.00000000	     21.11035941	      9.96555069	     50.32656098	     50.73101120	      5.39589263	      4.82644988	     13.09608968	      7.00102850	     18.03306993	      2.83856206	      8.73101271	      2.74468719	     35.93024038	     35.93024038	     13.34025147	     13.34025147	     30.71672090	     30.71672090	    126.36062631	    225.33064586	     29.05084519	    -17.10261274	      3.09659037	     49.37170279	   -126.36062631	   -225.33064586	    -29.05084519	      6.19079553	     -3.88654945	      4.21799612	     33.61505026	     26.27718007	     11.70120766	     -4.11181767	     -0.74412157	     13.46277713	    -33.61505026	    -26.27718007	    -11.70120766	     -0.37619575	      0.45083861	      0.08893910	   -748.43584268	   -669.22436220	    223.60089643	    -15.47750397	     17.03481633	     -0.71921002	    748.43584268	    669.22436220	   -223.60089643	    102.92770382	    -13.43436914	    304.20802458	      0.00000000	      0.00000000	      0.00000000	      0.00000000	      0.00000000	      0.00000000	      0.00000000	      0.00000000	      0.00000000	      0.00000000	      0.00000000	      0.00000000	      1.67063658	      0.00000000	    596.11104415	    380.52385524	      0.00000000	      0.00000000	      0.00000000	      0.00000000	      0.00000000	      0.00000000	      0.00000000	      0.00000000	      0.00000001	      0.00000000
      0.16722741	     11.30230388	      8.25223370	      8.87447836	      3.81193037	      4.43368594	      4.78992089	      0.00000000	    164.74847549	    149.19811358	    305.39525149	    129.10422304	      8.21200267	      5.91701697	      3.88426402	      3.59775889	      6.05913075	      4.98155376	      3.21733161	     98.62512171	      5.32810992	      8.10520811	      6.08986708	     27.37506515	     18.33292747	      5.24057794	      3.62761046	      6.21207515	     56.62623824	     31.02128017	     33.27065247	     45.06376780	      0.00000000	      0.00000000	      0.00000000	      0.00000000	      0.00000000	      0.00000000	     34.05302247	      2.18581119	      2.84740701	     26.43334440	     43.94932448	     11.26038794	     11.30230388	      8.25223370	      8.87447836	      3.81193037	      4.43368594	      4.78992089	      0.00000000	      6.11091281	     12.06626009	     10.43056147	      2.17510891	      8.21200267	      5.91701697	      3.88426402	      3.59775889	      6.05913075	      5.37867237	      3.21733161	      2.24498450	      5.32810992	      8.10520811	      6.08986708	     27.37506515	     18.33292747	      5.24057794	      3.62761046	      6.21207515	     16.79115196	      0.00000000	      0.00000000	      0.00000000	     21.10075926	      9.95981376	     50.25721831	     50.69503553	      5.38763836	      4.81881174	     13.07528703	      6.98926276	     18.01088655	      2.83464371	      8.71698774	      2.74060671	     35.87964422	     35.87964422	     13.31995029	     13.31995029	     30.69832266	     30.69832266	    128.71179047	    226.19076309	     29.71803351	    -17.40400167	      3.15912969	     50.32556120	   -128.71179047	   -226.19076309	    -29.71803351	      6.23435085	     -3.96869870	      4.21313458	     34.00370554	     26.21391495	     11.46616140	     -4.01905951	     -0.75129827	     13.61641331	    -34.00370554	    -26.21391495	    -11.46616140	     -0.37869267	      0.46154466	      0.08786322	   -752.28280244	   -669.07633419	    223.73007199	    -15.45053721	     17.10627877	     -0.68168887	    752.28280244	    669.07633419	   -223.73007199	    102.96470098	    -13.49642742	    305.73977014	      0.00000000	      0.00000000	      0.00000000	      0.00000000	      0.00000000	      0.00000000	      0.00000000	      0.00000000	      0.00000000	      0.00000000	      0.00000000	      0.00000000	      1.71055595	      0.00000000	    599.52129386	    382.12392228	      0.00000000	      0.00000000	      0.00000000	      0.00000000	      0.00000000	      0.00000000	      0.00000000	      0.00000000	      0.00000001	      0.00000000
